<?xml version="1.0" encoding="UTF-8" standalone="no"?><!DOCTYPE svg PUBLIC "-//W3C//DTD SVG 1.1//EN" "http://www.w3.org/Graphics/SVG/1.1/DTD/svg11.dtd"><svg width="100%" height="100%" viewBox="0 0 1920 1920" version="1.1" xmlns="http://www.w3.org/2000/svg" xmlns:xlink="http://www.w3.org/1999/xlink" xml:space="preserve" xmlns:serif="http://www.serif.com/" style="fill-rule:evenodd;clip-rule:evenodd;stroke-linejoin:round;stroke-miterlimit:2;"><path d="M1187.83,959.988l713.075,-713.03c25.317,-25.321 25.317,-66.296 0,-91.608l-136.279,-136.329c-12.137,-12.129 -28.608,-18.959 -45.8,-18.959c-17.196,0 -33.667,6.83 -45.804,18.959l-713.075,713.083l-713.075,-713.083c-12.137,-12.129 -28.608,-18.959 -45.804,-18.959c-17.192,0 -33.667,6.83 -45.8,18.959l-136.279,136.329c-25.321,25.312 -25.321,66.287 -0,91.608l713.075,713.034l-713.005,712.945c-25.308,25.321 -25.308,66.296 0,91.609l136.288,136.329c12.129,12.129 28.604,18.958 45.8,18.958c17.196,0 33.667,-6.829 45.808,-18.958l712.988,-713l712.991,713c12.138,12.129 28.609,18.958 45.805,18.958c17.2,0 33.67,-6.829 45.8,-18.958l136.287,-136.329c25.309,-25.313 25.309,-66.288 0,-91.609l-712.996,-712.95Z" style="fill:#fff;fill-rule:nonzero;"/></svg>